<svg id="Layer_1" enable-background="new 0 0 110 50" height="10" viewBox="0 0 110 50" width="100" xmlns="http://www.w3.org/2000/svg" xmlns:xlink="http://www.w3.org/1999/xlink"><linearGradient id="SVGID_1_" gradientTransform="matrix(1 0 0 -1 -799.6289 -811.3555)" gradientUnits="userSpaceOnUse" x1="804.916" x2="837.6981" y1="-841.6445" y2="-822.7178"><stop offset="0" stop-color="#2294f1"/><stop offset=".5" stop-color="#f7427a"/><stop offset="1" stop-color="#f49103"/></linearGradient><path d="m0 0h109.828v49.87h-109.828z" fill="none"/><path d="m14.875 42.813c-2.253 0-4.087-1.834-4.087-4.088 0-.637.149-1.264.433-1.83v-.015l.114-.198 8.085-14.003c.731-1.261 2.087-2.043 3.54-2.043 1.581 0 2.553.908 3.333 1.638l.037.036c.449.473 1.403.843 2.172.843 2.203 0 3.994-1.793 3.994-3.998s-1.792-3.998-3.994-3.998l-14.122-.003c-2.253 0-4.086-1.833-4.086-4.087 0-2.253 1.833-4.086 4.086-4.086h14.108c1.554 0 3.067.288 4.498.855 4.667 1.853 7.682 6.295 7.682 11.319 0 6.712-5.458 12.173-12.166 12.173-1.45 0-2.861-.252-4.205-.748l-5.884 10.19c-.728 1.259-2.084 2.043-3.538 2.043zm-1.967-5.445-.095.167c-.208.361-.319.771-.319 1.189 0 1.313 1.068 2.381 2.38 2.381.847 0 1.636-.455 2.061-1.189l6.638-11.497.701.312c1.335.59 2.758.891 4.227.891 5.768 0 10.459-4.695 10.459-10.466 0-4.32-2.593-8.14-6.605-9.733-1.229-.488-2.53-.735-3.868-.735h-14.108c-1.313 0-2.38 1.068-2.38 2.38 0 1.313 1.068 2.381 2.38 2.381l14.123.002c3.143 0 5.7 2.559 5.7 5.704s-2.557 5.704-5.701 5.704c-1.229 0-2.618-.556-3.391-1.355-.775-.723-1.311-1.162-2.151-1.162-.846 0-1.637.456-2.063 1.191z" fill="url(#SVGID_1_)"/><g fill="#ffff"><path d="m50.775 31.1c-.186-.186-.279-.438-.279-.757v-12.104c0-.305.089-.548.269-.727.179-.179.428-.269.747-.269h4.798c1.485 0 2.641.365 3.463 1.095.824.73 1.234 1.765 1.234 3.105 0 1.327-.41 2.362-1.234 3.105-.822.743-1.978 1.115-3.463 1.115h-3.764v4.678c0 .318-.089.571-.269.757-.18.187-.435.278-.767.278-.303.002-.549-.091-.735-.276zm8.262-9.656c0-1.699-.982-2.548-2.946-2.548h-3.544v5.116h3.544c1.964 0 2.946-.856 2.946-2.568z"/><path d="m63.337 19.095c-.228-.212-.339-.491-.339-.836s.111-.62.339-.826c.226-.206.53-.309.916-.309.371 0 .673.103.905.309s.349.481.349.826-.112.624-.339.836-.531.318-.915.318c-.386.001-.69-.105-.916-.318zm.188 12.046c-.192-.16-.289-.398-.289-.718v-8.083c0-.319.097-.561.289-.727.191-.166.435-.249.728-.249.291 0 .53.083.718.249.186.166.277.408.277.727v8.083c0 .318-.094.558-.277.718-.188.158-.427.237-.718.237-.293 0-.535-.079-.728-.237z"/><path d="m76.535 30.462c0 .252-.09.47-.27.647-.18.18-.396.269-.646.269s-.484-.112-.696-.338l-3.046-3.425-3.025 3.425c-.213.226-.444.338-.697.338-.252 0-.467-.093-.646-.278-.179-.186-.269-.404-.269-.656s.093-.479.278-.678l3.146-3.463-2.985-3.326c-.199-.226-.299-.451-.299-.677 0-.252.094-.468.278-.647.185-.179.397-.269.638-.269.251 0 .482.113.696.338l2.887 3.265 2.888-3.265c.211-.226.45-.338.717-.338.238 0 .449.089.637.269.186.179.277.395.277.647s-.1.478-.297.677l-2.986 3.326 3.125 3.463c.196.199.295.431.295.696z"/><path d="m85.363 22.3c.631.65.945 1.639.945 2.966v5.156c0 .307-.086.54-.259.706s-.411.249-.717.249c-.292 0-.524-.087-.696-.259-.173-.173-.259-.405-.259-.696v-.736c-.253.558-.627.985-1.125 1.283-.498.299-1.078.448-1.742.448-.637 0-1.218-.129-1.741-.39-.524-.258-.938-.612-1.244-1.063-.305-.45-.457-.963-.457-1.532-.014-.718.164-1.277.537-1.684.371-.404.976-.695 1.812-.875s1.997-.27 3.483-.27h.457v-.577c0-.743-.151-1.28-.457-1.612-.305-.332-.797-.498-1.474-.498-.465 0-.901.06-1.313.179-.411.12-.862.292-1.354.518-.356.199-.61.298-.756.298-.198 0-.362-.073-.487-.219-.127-.146-.188-.332-.188-.558 0-.199.056-.375.169-.527.111-.152.295-.302.547-.448.465-.252 1.009-.455 1.633-.607s1.229-.229 1.813-.229c1.283.002 2.242.327 2.873.977zm-1.701 6.88c.464-.498.695-1.14.695-1.923v-.519h-.357c-1.035 0-1.831.048-2.389.141-.559.094-.955.249-1.194.469-.239.219-.358.533-.358.945 0 .479.174.869.519 1.174.345.307.776.458 1.294.458.728 0 1.325-.249 1.79-.745z"/><path d="m89.156 19.095c-.227-.212-.34-.491-.34-.836s.113-.62.34-.826c.226-.206.529-.309.916-.309.371 0 .673.103.904.309.232.206.35.481.35.826s-.113.624-.34.836c-.225.212-.529.318-.914.318-.384.001-.69-.105-.916-.318zm.19 12.046c-.193-.16-.289-.398-.289-.718v-8.083c0-.319.096-.561.289-.727.191-.166.436-.249.728-.249.29 0 .53.083.717.249s.278.408.278.727v8.083c0 .318-.094.558-.278.718-.187.158-.427.237-.717.237-.295 0-.537-.079-.728-.237z"/><path d="m102.555 17.403c.186.173.277.405.277.697v12.302c0 .306-.089.545-.27.717-.179.172-.422.259-.727.259-.307 0-.548-.087-.727-.259-.18-.172-.27-.411-.27-.717v-.797c-.292.584-.717 1.033-1.273 1.345-.558.312-1.201.468-1.932.468-.836 0-1.583-.212-2.24-.637-.655-.426-1.166-1.022-1.531-1.793-.365-.77-.549-1.651-.549-2.647 0-1.008.184-1.891.549-2.647s.871-1.34 1.521-1.752c.65-.411 1.4-.617 2.25-.617.729 0 1.37.156 1.922.468.551.312.971.753 1.264 1.324v-5.057c0-.279.09-.501.27-.667s.422-.249.727-.249c.306 0 .551.087.739.259zm-2.43 11.527c.479-.598.717-1.445.717-2.549 0-1.101-.236-1.951-.707-2.548s-1.145-.896-2.021-.896c-.875 0-1.557.295-2.04.886-.484.591-.726 1.43-.726 2.518 0 1.089.244 1.941.735 2.56.49.617 1.168.926 2.03.926.862-.001 1.533-.302 2.012-.897z"/></g></svg>